<?xml version="1.0" standalone="no"?>
<!DOCTYPE svg PUBLIC "-//W3C//DTD SVG 20010904//EN"
 "http://www.w3.org/TR/2001/REC-SVG-20010904/DTD/svg10.dtd">
<svg version="1.0" xmlns="http://www.w3.org/2000/svg"
 width="848.000000pt" height="848.000000pt" viewBox="0 0 848.000000 848.000000"
 preserveAspectRatio="xMidYMid meet">
<metadata>
Created by potrace 1.14, written by Peter Selinger 2001-2017
</metadata>
<g transform="translate(0.000000,848.000000) scale(0.100000,-0.100000)"
fill="#000000" stroke="none">
<path d="M3418 8155 c-2 -2 -16 -6 -31 -9 -15 -3 -38 -8 -51 -11 -44 -9 -155
-61 -183 -85 -16 -13 -30 -23 -33 -22 -7 4 -140 -120 -140 -130 0 -5 -9 -19
-20 -31 -25 -27 -84 -148 -99 -202 -65 -247 0 -500 173 -670 90 -88 156 -131
272 -175 18 -7 20 -15 17 -67 -2 -32 -5 -110 -8 -173 -2 -63 -7 -164 -10 -225
-7 -150 -17 -393 -18 -433 l0 -34 -60 6 c-33 4 -69 8 -81 11 -21 4 -93 14
-156 20 -19 3 -66 9 -105 15 -38 7 -83 13 -100 15 -16 1 -69 8 -117 15 -68 9
-95 9 -123 0 -20 -7 -42 -13 -48 -14 -7 -2 -19 -6 -27 -9 -8 -4 -35 -13 -60
-21 -25 -8 -124 -39 -220 -70 -96 -30 -178 -56 -183 -56 -4 0 -21 -7 -37 -15
-17 -9 -30 -13 -30 -9 0 4 -7 1 -15 -6 -8 -7 -15 -10 -15 -7 0 3 -30 -5 -67
-19 -38 -13 -69 -24 -71 -24 -1 1 -109 -33 -240 -75 -130 -42 -293 -95 -362
-117 -69 -22 -143 -46 -165 -55 -22 -8 -49 -17 -59 -19 -10 -2 -35 -9 -55 -16
-20 -7 -38 -12 -41 -13 -3 0 -18 -5 -35 -12 -31 -12 -129 -42 -155 -49 -22 -5
-172 -55 -195 -64 -20 -9 -61 -22 -80 -26 -5 -1 -82 -25 -170 -54 -88 -28
-171 -55 -185 -59 -24 -7 -25 -11 -24 -77 3 -131 10 -240 18 -252 4 -7 2 -12
-4 -12 -6 0 -8 -4 -5 -10 3 -5 8 -49 11 -97 11 -215 14 -256 19 -261 3 -3 0
-11 -6 -19 -6 -7 -8 -13 -3 -13 5 0 10 -19 10 -43 2 -51 12 -250 20 -372 7
-117 12 -196 19 -325 3 -58 7 -134 9 -170 8 -126 19 -326 20 -367 1 -24 5 -43
10 -43 5 0 3 -6 -3 -13 -6 -8 -9 -16 -6 -19 5 -5 10 -71 20 -266 2 -45 7 -87
10 -92 3 -6 1 -10 -5 -10 -6 0 -8 -5 -4 -12 4 -7 9 -39 10 -72 2 -34 6 -104 9
-156 9 -135 14 -230 20 -345 3 -55 7 -136 10 -180 3 -44 8 -120 10 -170 3 -49
7 -130 10 -180 3 -49 8 -130 10 -180 2 -49 4 -90 5 -90 1 0 3 -29 5 -65 2 -36
6 -114 10 -175 3 -60 8 -148 10 -195 2 -47 7 -116 9 -155 8 -120 18 -288 20
-340 l2 -50 50 1 c27 1 92 4 144 8 52 4 122 9 155 11 33 2 96 7 140 10 44 3
112 8 150 10 39 3 102 8 140 11 39 2 106 7 150 10 170 10 203 12 285 18 47 4
112 9 145 11 62 5 170 13 288 20 37 2 101 7 142 10 41 3 108 7 148 10 39 3
106 8 147 11 41 3 109 7 150 9 76 5 165 11 275 19 33 3 103 8 155 11 52 3 113
8 135 9 22 2 90 7 150 11 61 4 126 8 145 10 33 3 188 14 295 20 28 2 84 6 125
9 109 8 236 17 305 21 73 4 196 13 290 20 165 12 234 17 295 20 36 2 101 7
145 11 44 3 110 7 147 8 38 0 68 3 68 6 0 3 21 5 48 6 43 1 201 10 304 19 47
4 163 12 298 20 47 3 112 7 145 10 33 2 96 7 140 10 44 3 112 8 150 10 39 3
104 8 145 10 41 3 104 7 140 10 135 9 227 16 300 20 41 2 75 5 75 5 0 2 86 8
200 15 88 5 130 8 278 19 39 3 113 8 162 11 50 3 117 8 150 10 33 3 96 7 140
10 44 3 105 7 135 10 30 2 102 7 160 11 58 4 121 8 140 9 19 2 38 3 42 4 3 1
6 18 6 39 0 20 1 39 2 42 1 3 3 32 5 65 4 77 13 226 20 335 4 47 8 114 10 150
2 36 6 115 10 175 3 61 8 134 10 163 2 28 1 52 -3 53 -16 1 -60 10 -102 19
-25 5 -58 11 -75 14 -16 2 -57 9 -90 15 -33 6 -76 13 -95 16 -19 3 -59 10 -89
16 -30 6 -64 12 -75 14 -21 3 -188 32 -236 41 -33 6 -89 15 -120 19 -14 1 -32
5 -40 8 -8 4 -33 9 -55 11 -22 3 -51 7 -65 10 -14 3 -52 10 -85 15 -33 6 -70
13 -82 15 -11 3 -43 8 -70 12 -26 5 -50 9 -53 9 -3 1 -27 5 -55 10 -27 4 -59
9 -70 12 -22 5 -55 11 -100 18 -16 3 -41 8 -55 10 -14 3 -38 8 -55 10 -113 14
-155 30 -181 70 -16 25 -16 64 0 315 3 41 8 111 10 155 3 44 8 114 11 155 3
41 8 111 10 155 3 44 8 107 10 140 2 33 6 98 9 145 3 47 8 121 11 165 4 44 8
114 10 155 2 41 5 75 5 75 2 0 7 64 10 130 3 53 27 97 62 116 20 11 232 20
515 23 62 0 113 4 113 8 0 4 8 4 17 1 10 -4 31 -6 48 -5 65 3 517 17 939 28
109 2 203 7 207 10 4 2 8 12 7 22 0 20 10 205 17 315 3 43 8 111 10 150 2 40
7 117 11 172 3 55 7 125 9 155 9 188 18 306 21 312 7 11 -9 16 -66 23 -97 12
-104 13 -142 19 -50 8 -92 14 -153 21 -27 3 -61 8 -75 11 -14 2 -47 7 -75 10
-27 3 -66 8 -85 10 -19 3 -46 7 -60 9 -14 1 -25 4 -25 5 0 1 -16 3 -35 4 -19
2 -71 8 -115 14 -44 6 -102 14 -130 18 -27 3 -59 8 -70 10 -11 2 -40 7 -65 10
-25 3 -56 8 -70 10 -14 3 -32 6 -40 6 -14 0 -72 8 -180 24 -25 3 -56 7 -70 9
-14 1 -50 6 -80 10 -30 4 -66 9 -80 11 -14 1 -36 5 -50 8 -14 2 -52 8 -85 11
-33 4 -71 9 -85 11 -14 2 -43 6 -65 9 -22 2 -51 7 -65 9 -14 3 -47 8 -75 11
-27 3 -65 8 -82 11 l-33 6 -2 447 c-2 245 -2 469 0 497 3 50 4 52 36 58 40 8
147 59 196 95 47 34 160 152 160 166 0 3 11 23 25 45 14 22 22 40 19 40 -4 0
-2 6 3 13 26 31 55 165 56 252 0 67 -19 164 -45 225 -6 14 -15 36 -21 50 -31
71 -135 193 -203 238 -36 24 -89 56 -94 57 -3 1 -18 7 -35 14 -240 100 -543
26 -713 -173 -24 -28 -51 -64 -60 -81 -10 -16 -20 -32 -23 -35 -16 -14 -55
-137 -67 -210 -42 -258 104 -534 346 -655 l53 -27 -6 -61 c-4 -34 -9 -71 -11
-82 -3 -11 -7 -36 -9 -55 -3 -19 -8 -50 -11 -68 -5 -31 -10 -72 -19 -137 -9
-69 -15 -112 -21 -140 -4 -16 -8 -43 -9 -60 -2 -16 -6 -48 -10 -69 -4 -22 -8
-54 -10 -70 -2 -17 -4 -31 -5 -31 -1 0 -3 -13 -5 -30 -5 -54 -17 -130 -22
-138 -3 -4 -21 -5 -41 -2 -21 4 -53 9 -72 11 -64 7 -114 13 -140 19 -14 2 -47
7 -75 10 -73 9 -118 15 -145 20 -13 2 -46 7 -74 10 -28 3 -80 10 -116 16 -60
9 -117 16 -180 24 -14 2 -25 4 -25 5 0 1 -13 3 -30 5 -161 19 -224 28 -308 41
-16 3 -50 7 -75 9 -26 3 -58 7 -72 9 -28 5 -82 13 -150 21 -25 4 -61 9 -80 12
-19 3 -49 6 -65 8 -17 1 -44 5 -60 9 -17 3 -52 8 -80 12 -146 19 -190 26 -197
32 -4 4 -9 39 -12 77 -3 39 -7 86 -10 105 -3 19 -8 69 -12 110 -3 41 -8 93
-11 115 -9 84 -11 112 -17 185 -4 41 -8 91 -11 110 -4 33 -14 131 -20 195 -1
17 -4 35 -5 40 -8 33 2 64 23 71 124 37 250 132 338 253 30 42 104 191 94 191
-2 0 0 12 6 28 16 40 20 69 23 154 10 266 -138 514 -379 636 -53 26 -82 36
-170 59 -23 6 -232 13 -237 8z m-753 -3750 c33 -3 71 -7 85 -10 14 -2 63 -7
110 -10 47 -3 99 -8 115 -10 17 -3 62 -8 100 -11 109 -8 167 -13 210 -18 22
-2 76 -8 120 -11 44 -4 98 -9 120 -12 22 -2 56 -6 75 -7 130 -11 206 -18 223
-22 11 -2 54 -6 96 -9 42 -3 90 -7 106 -9 17 -2 66 -7 110 -10 44 -4 96 -9
115 -11 19 -3 64 -7 100 -10 36 -3 85 -7 110 -10 25 -3 70 -7 100 -9 203 -16
286 -61 344 -185 21 -46 21 -54 21 -851 0 -443 -2 -818 -5 -835 -10 -65 -97
-170 -159 -193 -14 -6 -35 -13 -46 -17 -11 -5 -33 -9 -50 -10 -29 -2 -107 -10
-210 -21 -60 -7 -110 -12 -190 -19 -33 -3 -81 -7 -107 -10 -98 -10 -143 -15
-197 -20 -31 -3 -78 -7 -106 -10 -109 -12 -142 -15 -200 -20 -33 -2 -78 -7
-100 -10 -101 -12 -174 -19 -222 -19 -29 -1 -53 -3 -53 -6 0 -3 -12 -5 -27 -6
-16 0 -59 -4 -98 -8 -38 -4 -86 -9 -105 -11 -37 -3 -149 -14 -215 -21 -88 -9
-181 -17 -195 -16 -197 5 -346 144 -366 341 -2 20 -6 77 -9 126 -3 50 -7 122
-10 160 -7 99 -15 229 -20 305 -2 36 -6 94 -9 130 -3 36 -8 108 -11 160 -4 52
-9 124 -11 160 -2 36 -6 97 -9 135 -2 39 -6 102 -9 140 -3 39 -8 113 -11 165
-3 52 -8 124 -11 160 -14 174 -3 242 58 335 46 71 110 118 194 145 59 18 97
19 249 5z"/>
</g>
</svg>
